<?xml version='1.0' encoding='ASCII' standalone='yes'?>
<svg xmlns="http://www.w3.org/2000/svg" xmlns:xlink="http://www.w3.org/1999/xlink" version="1.1" width="212" viewBox="0 0 212 300" height="300">
  <g>
    <g><defs id="defs2"/>
  <sodipodi:namedview xmlns:sodipodi="http://sodipodi.sourceforge.net/DTD/sodipodi-0.dtd" xmlns:inkscape="http://www.inkscape.org/namespaces/inkscape" id="base" pagecolor="#ffffff" bordercolor="#666666" borderopacity="1.0" inkscape:pageopacity="0.0" inkscape:pageshadow="2" inkscape:zoom="0.35" inkscape:cx="400" inkscape:cy="560" inkscape:document-units="mm" inkscape:current-layer="layer1" inkscape:document-rotation="0" showgrid="false" inkscape:window-width="1920" inkscape:window-height="1001" inkscape:window-x="-9" inkscape:window-y="-9" inkscape:window-maximized="1"/>
  <metadata xmlns:rdf="http://www.w3.org/1999/02/22-rdf-syntax-ns#" xmlns:cc="http://creativecommons.org/ns#" xmlns:dc="http://purl.org/dc/elements/1.1/" id="metadata5">
    <rdf:RDF>
      <cc:Work rdf:about="">
        <dc:format>image/svg+xml</dc:format>
        <dc:type rdf:resource="http://purl.org/dc/dcmitype/StillImage"/>
        <dc:title/>
      </cc:Work>
    </rdf:RDF>
  </metadata>
  <g xmlns:inkscape="http://www.inkscape.org/namespaces/inkscape" inkscape:label="Calque 1" inkscape:groupmode="layer" id="layer1">
    <rect style="fill:#008000;stroke-width:0.264583" id="rect10" width="205.61905" height="289.52979" x="2.2678571" y="3.7797618"/>
    <rect style="fill:#ff0000;stroke-width:0.313869" id="rect12" width="136.82738" height="154.97023" x="3.023808" y="138.33928"/>
    <rect style="fill:#ff0000;stroke-width:0.264583" id="rect14" width="8.3154764" height="9.0714283" x="87.690468" y="164.79761"/>
  </g>
</g>
    <g><line stroke="#000000" stroke-width="1px" y2="300" x2="0" y1="0" x1="0"/>
    <line stroke="#000000" stroke-width="1px" y2="300" x2="21" y1="0" x1="21"/>
    <line stroke="#000000" stroke-width="1px" y2="300" x2="42" y1="0" x1="42"/>
    <line stroke="#000000" stroke-width="1px" y2="300" x2="63" y1="0" x1="63"/>
    <line stroke="#000000" stroke-width="1px" y2="300" x2="84" y1="0" x1="84"/>
    <line stroke="#000000" stroke-width="1px" y2="300" x2="105" y1="0" x1="105"/>
    <line stroke="#000000" stroke-width="1px" y2="300" x2="126" y1="0" x1="126"/>
    <line stroke="#000000" stroke-width="1px" y2="300" x2="147" y1="0" x1="147"/>
    <line stroke="#000000" stroke-width="1px" y2="300" x2="168" y1="0" x1="168"/>
    <line stroke="#000000" stroke-width="1px" y2="300" x2="189" y1="0" x1="189"/>
    <line stroke="#000000" stroke-width="1px" y2="300" x2="210" y1="0" x1="210"/>
    <line stroke="#000000" stroke-width="1px" y2="0" x2="212" y1="0" x1="0"/>
    <line stroke="#000000" stroke-width="1px" y2="21" x2="212" y1="21" x1="0"/>
    <line stroke="#000000" stroke-width="1px" y2="42" x2="212" y1="42" x1="0"/>
    <line stroke="#000000" stroke-width="1px" y2="63" x2="212" y1="63" x1="0"/>
    <line stroke="#000000" stroke-width="1px" y2="84" x2="212" y1="84" x1="0"/>
    <line stroke="#000000" stroke-width="1px" y2="105" x2="212" y1="105" x1="0"/>
    <line stroke="#000000" stroke-width="1px" y2="126" x2="212" y1="126" x1="0"/>
    <line stroke="#000000" stroke-width="1px" y2="147" x2="212" y1="147" x1="0"/>
    <line stroke="#000000" stroke-width="1px" y2="168" x2="212" y1="168" x1="0"/>
    <line stroke="#000000" stroke-width="1px" y2="189" x2="212" y1="189" x1="0"/>
    <line stroke="#000000" stroke-width="1px" y2="210" x2="212" y1="210" x1="0"/>
    <line stroke="#000000" stroke-width="1px" y2="231" x2="212" y1="231" x1="0"/>
    <line stroke="#000000" stroke-width="1px" y2="252" x2="212" y1="252" x1="0"/>
    <line stroke="#000000" stroke-width="1px" y2="273" x2="212" y1="273" x1="0"/>
    <line stroke="#000000" stroke-width="1px" y2="294" x2="212" y1="294" x1="0"/>
</g>
    <g><line stroke="#ffff00" stroke-width="5px" y2="252" x2="189" y1="252" x1="105"/>
    <circle stroke="#0000ff" stroke-width="1px" fill="#0000ff" r="5" cy="126" cx="21"/>
    <circle stroke="#0000ff" stroke-width="1px" fill="#0000ff" r="5" cy="126" cx="21"/>
    <line stroke="#0000ff" stroke-width="5px" y2="126" x2="21" y1="126" x1="21"/>
    <circle stroke="#0000ff" stroke-width="1px" fill="#0000ff" r="5" cy="126" cx="21"/>
    <line stroke="#0000ff" stroke-width="5px" y2="105" x2="42" y1="126" x1="21"/>
    <circle stroke="#0000ff" stroke-width="1px" fill="#0000ff" r="5" cy="105" cx="42"/>
    <line stroke="#0000ff" stroke-width="5px" y2="105" x2="84" y1="105" x1="42"/>
    <circle stroke="#0000ff" stroke-width="1px" fill="#0000ff" r="5" cy="105" cx="84"/>
    <line stroke="#0000ff" stroke-width="5px" y2="126" x2="126" y1="105" x1="84"/>
    <circle stroke="#0000ff" stroke-width="1px" fill="#0000ff" r="5" cy="126" cx="126"/>
    <line stroke="#0000ff" stroke-width="5px" y2="168" x2="147" y1="126" x1="126"/>
    <circle stroke="#0000ff" stroke-width="1px" fill="#0000ff" r="5" cy="168" cx="147"/>
    <line stroke="#0000ff" stroke-width="5px" y2="210" x2="147" y1="168" x1="147"/>
    <circle stroke="#0000ff" stroke-width="1px" fill="#0000ff" r="5" cy="210" cx="147"/>
    <line stroke="#0000ff" stroke-width="5px" y2="252" x2="147" y1="210" x1="147"/>
    <circle stroke="#ffff00" stroke-width="1px" fill="#ffff00" r="5" cy="252" cx="147"/>
</g>
  </g>
</svg>
